<mxfile host="app.diagrams.net" modified="2020-12-04T09:17:31.622Z" agent="5.0 (Windows NT 6.1; Win64; x64) AppleWebKit/537.36 (KHTML, like Gecko) Chrome/87.0.4280.66 Safari/537.36" etag="1R2Dc_7qIGyf0LU_lM1S" version="13.10.6" type="github">
  <diagram id="q37uBSDnxZ4MHzuR1Amq" name="第 1 页">
    <mxGraphModel dx="1102" dy="525" grid="1" gridSize="10" guides="1" tooltips="1" connect="1" arrows="1" fold="1" page="1" pageScale="1" pageWidth="827" pageHeight="1169" math="0" shadow="0">
      <root>
        <mxCell id="0" />
        <mxCell id="1" parent="0" />
        <mxCell id="jHgjlgk7JN-_l4VG_9NB-1" value="0" style="rounded=0;whiteSpace=wrap;html=1;fontSize=16;fillColor=#f8cecc;strokeColor=none;" vertex="1" parent="1">
          <mxGeometry x="130" y="280" width="90" height="60" as="geometry" />
        </mxCell>
        <mxCell id="jHgjlgk7JN-_l4VG_9NB-2" value="01111011" style="rounded=0;whiteSpace=wrap;html=1;fontSize=16;fillColor=#cce5ff;strokeColor=none;" vertex="1" parent="1">
          <mxGeometry x="220" y="280" width="150" height="60" as="geometry" />
        </mxCell>
        <mxCell id="jHgjlgk7JN-_l4VG_9NB-3" value="符号位" style="text;html=1;align=center;verticalAlign=middle;resizable=0;points=[];autosize=1;fontSize=16;" vertex="1" parent="1">
          <mxGeometry x="145" y="230" width="60" height="20" as="geometry" />
        </mxCell>
        <mxCell id="jHgjlgk7JN-_l4VG_9NB-4" value="" style="shape=curlyBracket;whiteSpace=wrap;html=1;rounded=1;fontSize=16;rotation=90;" vertex="1" parent="1">
          <mxGeometry x="162.5" y="222.5" width="20" height="85" as="geometry" />
        </mxCell>
        <mxCell id="jHgjlgk7JN-_l4VG_9NB-5" value="10011001100110011001101" style="rounded=0;whiteSpace=wrap;html=1;fontSize=16;fillColor=#cdeb8b;strokeColor=none;" vertex="1" parent="1">
          <mxGeometry x="370" y="280" width="250" height="60" as="geometry" />
        </mxCell>
        <mxCell id="jHgjlgk7JN-_l4VG_9NB-6" value="指数位" style="text;html=1;align=center;verticalAlign=middle;resizable=0;points=[];autosize=1;fontSize=16;" vertex="1" parent="1">
          <mxGeometry x="265" y="230" width="60" height="20" as="geometry" />
        </mxCell>
        <mxCell id="jHgjlgk7JN-_l4VG_9NB-7" value="" style="shape=curlyBracket;whiteSpace=wrap;html=1;rounded=1;fontSize=16;rotation=90;" vertex="1" parent="1">
          <mxGeometry x="283.75" y="188.75" width="20" height="152.5" as="geometry" />
        </mxCell>
        <mxCell id="jHgjlgk7JN-_l4VG_9NB-8" value="尾数位" style="text;html=1;align=center;verticalAlign=middle;resizable=0;points=[];autosize=1;fontSize=16;" vertex="1" parent="1">
          <mxGeometry x="462.5" y="230" width="60" height="20" as="geometry" />
        </mxCell>
        <mxCell id="jHgjlgk7JN-_l4VG_9NB-9" value="" style="shape=curlyBracket;whiteSpace=wrap;html=1;rounded=1;fontSize=16;rotation=90;" vertex="1" parent="1">
          <mxGeometry x="482.5" y="145" width="20" height="240" as="geometry" />
        </mxCell>
        <mxCell id="jHgjlgk7JN-_l4VG_9NB-10" value="0.1 二进制浮点数" style="text;html=1;align=center;verticalAlign=middle;resizable=0;points=[];autosize=1;fontSize=18;fillColor=#ffff88;" vertex="1" parent="1">
          <mxGeometry x="295" y="145" width="150" height="30" as="geometry" />
        </mxCell>
        <mxCell id="jHgjlgk7JN-_l4VG_9NB-11" value="&lt;sup&gt;&lt;font&gt;&lt;font&gt;&lt;font size=&quot;4&quot;&gt;(-1)&lt;/font&gt;&lt;sup&gt;&lt;font style=&quot;font-size: 12px&quot;&gt;0&lt;/font&gt;&lt;/sup&gt;&lt;font size=&quot;4&quot;&gt; x ( &lt;font color=&quot;#ff0000&quot;&gt;1&lt;/font&gt; + 尾数位 ) x 2&lt;/font&gt;&lt;sup&gt;&lt;font style=&quot;font-size: 12px&quot;&gt;（指数 - &lt;font color=&quot;#ff0000&quot;&gt;&lt;b&gt;127&lt;/b&gt;&lt;/font&gt;）&lt;/font&gt;&lt;/sup&gt;&lt;sup style=&quot;font-size: 18px&quot;&gt;&amp;nbsp;&lt;/sup&gt;&lt;/font&gt;&lt;br style=&quot;font-size: 18px&quot;&gt;&lt;/font&gt;&lt;/sup&gt;" style="rounded=0;whiteSpace=wrap;html=1;fontSize=18;fillColor=#fff2cc;gradientColor=#ffd966;strokeColor=none;fontStyle=0" vertex="1" parent="1">
          <mxGeometry x="130" y="600" width="370" height="65" as="geometry" />
        </mxCell>
        <mxCell id="jHgjlgk7JN-_l4VG_9NB-12" value="&lt;font size=&quot;4&quot;&gt;(-1)&lt;/font&gt;&lt;sup&gt;&lt;font style=&quot;font-size: 12px&quot;&gt;0&lt;/font&gt;&lt;/sup&gt;" style="rounded=0;whiteSpace=wrap;html=1;fontSize=16;fillColor=#f8cecc;strokeColor=none;" vertex="1" parent="1">
          <mxGeometry x="92.5" y="400" width="90" height="60" as="geometry" />
        </mxCell>
        <mxCell id="jHgjlgk7JN-_l4VG_9NB-13" value="&lt;font size=&quot;4&quot;&gt;2&lt;/font&gt;&lt;sup&gt;&lt;font style=&quot;font-size: 12px&quot;&gt;（123 -&amp;nbsp;&lt;font color=&quot;#ff0000&quot;&gt;&lt;b&gt;127&lt;/b&gt;&lt;/font&gt;）&lt;/font&gt;&lt;/sup&gt;" style="rounded=0;whiteSpace=wrap;html=1;fontSize=16;fillColor=#cce5ff;strokeColor=none;" vertex="1" parent="1">
          <mxGeometry x="220" y="400" width="150" height="60" as="geometry" />
        </mxCell>
        <mxCell id="jHgjlgk7JN-_l4VG_9NB-14" value="&lt;span style=&quot;font-size: large&quot;&gt;&amp;nbsp;&lt;/span&gt;&lt;font color=&quot;#ff0000&quot; style=&quot;font-size: large&quot;&gt;1&lt;/font&gt;&lt;span style=&quot;font-size: large&quot;&gt;&amp;nbsp;+ 0.&amp;nbsp;&lt;/span&gt;" style="rounded=0;whiteSpace=wrap;html=1;fontSize=16;fillColor=#cdeb8b;strokeColor=none;" vertex="1" parent="1">
          <mxGeometry x="414" y="400" width="250" height="60" as="geometry" />
        </mxCell>
      </root>
    </mxGraphModel>
  </diagram>
</mxfile>
